<?xml version="1.0" encoding="UTF-8"?>
<!DOCTYPE svg PUBLIC "-//W3C//DTD SVG 1.1//EN" "http://www.w3.org/Graphics/SVG/1.1/DTD/svg11.dtd">
<svg xmlns="http://www.w3.org/2000/svg" xmlns:xlink="http://www.w3.org/1999/xlink" version="1.1" width="281px" height="242px" viewBox="-0.5 -0.5 281 242"><defs/><g><g data-cell-id="0"><g data-cell-id="1"><g data-cell-id="1hgW0FSnuLrLsOq6jUeU-5"><g><rect x="40" y="10" width="230" height="60" fill="#435461" stroke="none" pointer-events="all"/></g></g><g data-cell-id="1hgW0FSnuLrLsOq6jUeU-1"><g><rect x="40" y="0" width="240" height="10" fill="#2b92e0" stroke="#2b92e0" pointer-events="all"/></g></g><g data-cell-id="1hgW0FSnuLrLsOq6jUeU-2"><g><path d="M 20 0 Q 40 0 40 40 Q 40 80 20 80 Z" fill="#2b92e0" stroke="#2b92e0" stroke-miterlimit="10" transform="rotate(-180,30,40)" pointer-events="all"/></g></g><g data-cell-id="1hgW0FSnuLrLsOq6jUeU-3"><g><rect x="40" y="70" width="240" height="10" fill="#2b92e0" stroke="#2b92e0" pointer-events="all"/></g></g><g data-cell-id="1hgW0FSnuLrLsOq6jUeU-6"><g><rect x="20" y="90" width="230" height="60" fill="#435461" stroke="none" pointer-events="all"/></g></g><g data-cell-id="1hgW0FSnuLrLsOq6jUeU-7"><g><rect x="20" y="80" width="240" height="10" fill="#31deb9" stroke="#31deb9" pointer-events="all"/></g></g><g data-cell-id="1hgW0FSnuLrLsOq6jUeU-8"><g><path d="M 0 80 Q 20 80 20 120 Q 20 160 0 160 Z" fill="#31deb9" stroke="#31deb9" stroke-miterlimit="10" transform="rotate(-180,10,120)" pointer-events="all"/></g></g><g data-cell-id="1hgW0FSnuLrLsOq6jUeU-9"><g><rect x="20" y="150" width="240" height="10" fill="#31deb9" stroke="#31deb9" pointer-events="all"/></g></g><g data-cell-id="1hgW0FSnuLrLsOq6jUeU-11"><g><rect x="40" y="170" width="230" height="60" fill="#435461" stroke="none" pointer-events="all"/></g></g><g data-cell-id="1hgW0FSnuLrLsOq6jUeU-12"><g><rect x="40" y="160" width="240" height="10" fill="#e17a2a" stroke="#e17a2a" pointer-events="all"/></g></g><g data-cell-id="1hgW0FSnuLrLsOq6jUeU-13"><g><path d="M 20 160 Q 40 160 40 200 Q 40 240 20 240 Z" fill="#e17a2a" stroke="#e17a2a" stroke-miterlimit="10" transform="rotate(-180,30,200)" pointer-events="all"/></g></g><g data-cell-id="1hgW0FSnuLrLsOq6jUeU-14"><g><rect x="40" y="230" width="240" height="10" fill="#e17a2a" stroke="#e17a2a" pointer-events="all"/></g></g></g></g></g></svg>